<svg width="48" height="48" viewBox="0 0 48 48" fill="none" xmlns="http://www.w3.org/2000/svg">
<rect x="0.75" y="0.75" width="46.5" height="46.5" rx="23.25" stroke="white" stroke-width="1.5"/>
<path d="M33.9496 17.8931C33.8792 17.8088 33.7912 17.7411 33.6917 17.6946C33.5923 17.6481 33.4838 17.624 33.374 17.624H18.2503L17.6803 14.49C17.6489 14.3171 17.5578 14.1608 17.423 14.0483C17.2882 13.9357 17.1181 13.874 16.9425 13.874H14.624C14.4251 13.874 14.2343 13.953 14.0937 14.0937C13.953 14.2343 13.874 14.4251 13.874 14.624C13.874 14.8229 13.953 15.0137 14.0937 15.1544C14.2343 15.295 14.4251 15.374 14.624 15.374H16.3115L18.7078 28.5262C18.7784 28.9163 18.9507 29.2808 19.2075 29.5828C18.8531 29.9137 18.5974 30.3363 18.4686 30.8038C18.3398 31.2712 18.3429 31.7652 18.4777 32.2309C18.6125 32.6967 18.8737 33.116 19.2322 33.4423C19.5908 33.7687 20.0327 33.9894 20.509 34.08C20.9854 34.1705 21.4775 34.1274 21.9308 33.9553C22.3841 33.7832 22.7808 33.489 23.0771 33.1052C23.3734 32.7214 23.5576 32.2631 23.6093 31.781C23.661 31.2989 23.5781 30.8119 23.37 30.374H27.6281C27.4603 30.7253 27.3735 31.1097 27.374 31.499C27.374 32.0182 27.528 32.5257 27.8164 32.9574C28.1049 33.3891 28.5148 33.7255 28.9945 33.9242C29.4741 34.1229 30.0019 34.1749 30.5111 34.0736C31.0203 33.9723 31.4881 33.7223 31.8552 33.3552C32.2223 32.9881 32.4723 32.5203 32.5736 32.0111C32.6749 31.5019 32.6229 30.9741 32.4242 30.4945C32.2255 30.0148 31.8891 29.6049 31.4574 29.3164C31.0257 29.028 30.5182 28.874 29.999 28.874H20.9212C20.7456 28.874 20.5755 28.8123 20.4407 28.6998C20.3058 28.5872 20.2148 28.4309 20.1834 28.2581L19.8862 26.624H30.7612C31.2881 26.6239 31.7983 26.4389 32.2028 26.1013C32.6073 25.7636 32.8805 25.2946 32.9746 24.7762L34.1146 18.5081C34.1339 18.3997 34.1292 18.2885 34.1007 18.1822C34.0721 18.0759 34.0206 17.9772 33.9496 17.8931ZM22.124 31.499C22.124 31.7215 22.058 31.939 21.9344 32.124C21.8108 32.309 21.6351 32.4532 21.4295 32.5384C21.224 32.6235 20.9978 32.6458 20.7795 32.6024C20.5613 32.559 20.3609 32.4519 20.2035 32.2945C20.0462 32.1372 19.939 31.9367 19.8956 31.7185C19.8522 31.5003 19.8745 31.2741 19.9597 31.0685C20.0448 30.8629 20.189 30.6872 20.374 30.5636C20.559 30.44 20.7765 30.374 20.999 30.374C21.2974 30.374 21.5835 30.4925 21.7945 30.7035C22.0055 30.9145 22.124 31.2007 22.124 31.499ZM31.124 31.499C31.124 31.7215 31.058 31.939 30.9344 32.124C30.8108 32.309 30.6351 32.4532 30.4295 32.5384C30.224 32.6235 29.9978 32.6458 29.7795 32.6024C29.5613 32.559 29.3609 32.4519 29.2035 32.2945C29.0462 32.1372 28.939 31.9367 28.8956 31.7185C28.8522 31.5003 28.8745 31.2741 28.9597 31.0685C29.0448 30.8629 29.189 30.6872 29.374 30.5636C29.559 30.44 29.7765 30.374 29.999 30.374C30.2974 30.374 30.5835 30.4925 30.7945 30.7035C31.0055 30.9145 31.124 31.2007 31.124 31.499ZM31.499 24.5081C31.4675 24.6814 31.3761 24.8381 31.2407 24.9507C31.1053 25.0633 30.9345 25.1247 30.7584 25.124H19.6134L18.5231 19.124H32.475L31.499 24.5081Z" fill="white"/>
</svg>
