<svg width="48" height="48" viewBox="0 0 48 48" fill="none" xmlns="http://www.w3.org/2000/svg">
<rect x="0.75" y="0.75" width="46.5" height="46.5" rx="23.25" stroke="white" stroke-width="1.5"/>
<path d="M33.6489 32.2428C32.2211 29.7743 30.0208 28.0043 27.4529 27.1653C28.7231 26.4092 29.7099 25.257 30.2619 23.8857C30.8139 22.5145 30.9004 20.9999 30.5083 19.5747C30.1162 18.1495 29.2671 16.8923 28.0914 15.9964C26.9156 15.1005 25.4783 14.6152 24.0001 14.6152C22.5219 14.6152 21.0846 15.1005 19.9089 15.9964C18.7332 16.8923 17.8841 18.1495 17.492 19.5747C17.0998 20.9999 17.1864 22.5145 17.7384 23.8857C18.2903 25.257 19.2772 26.4092 20.5473 27.1653C17.9795 28.0034 15.7792 29.7734 14.3514 32.2428C14.299 32.3282 14.2643 32.4232 14.2492 32.5222C14.2342 32.6212 14.2391 32.7222 14.2637 32.8193C14.2884 32.9164 14.3322 33.0075 14.3926 33.0874C14.4531 33.1673 14.5289 33.2342 14.6156 33.2843C14.7023 33.3344 14.7982 33.3666 14.8976 33.3791C14.997 33.3915 15.0978 33.3839 15.1942 33.3568C15.2906 33.3296 15.3806 33.2834 15.4588 33.2209C15.5371 33.1583 15.602 33.0808 15.6498 32.9928C17.4161 29.9403 20.5379 28.1178 24.0001 28.1178C27.4623 28.1178 30.5842 29.9403 32.3504 32.9928C32.3982 33.0808 32.4632 33.1583 32.5414 33.2209C32.6197 33.2834 32.7097 33.3296 32.806 33.3568C32.9024 33.3839 33.0033 33.3915 33.1027 33.3791C33.2021 33.3666 33.2979 33.3344 33.3847 33.2843C33.4714 33.2342 33.5472 33.1673 33.6076 33.0874C33.6681 33.0075 33.7119 32.9164 33.7365 32.8193C33.7611 32.7222 33.7661 32.6212 33.751 32.5222C33.736 32.4232 33.7012 32.3282 33.6489 32.2428ZM18.7501 21.3678C18.7501 20.3294 19.058 19.3144 19.6349 18.451C20.2118 17.5877 21.0317 16.9148 21.991 16.5174C22.9504 16.1201 24.006 16.0161 25.0244 16.2187C26.0428 16.4212 26.9782 16.9212 27.7124 17.6555C28.4467 18.3897 28.9467 19.3252 29.1493 20.3436C29.3518 21.362 29.2479 22.4176 28.8505 23.3769C28.4531 24.3362 27.7802 25.1561 26.9169 25.733C26.0535 26.3099 25.0385 26.6178 24.0001 26.6178C22.6082 26.6163 21.2737 26.0627 20.2895 25.0785C19.3052 24.0942 18.7516 22.7597 18.7501 21.3678Z" fill="white"/>
</svg>
